<?xml version="1.0" encoding="utf-8"?>
<!-- Generator: Adobe Illustrator 25.2.1, SVG Export Plug-In . SVG Version: 6.00 Build 0)  -->
<svg version="1.1" id="Layer_1" xmlns="http://www.w3.org/2000/svg" xmlns:xlink="http://www.w3.org/1999/xlink" x="0px" y="0px"
	 viewBox="0 0 10 12" style="enable-background:new 0 0 10 12;" xml:space="preserve">
<style type="text/css">
	.st0{fill:#ED1A3A;}
</style>
<path class="st0" d="M0.1,7l4.5,4.8c0.3,0.3,0.6,0.3,0.9,0L9.8,7C10,6.9,10,6.7,10,6.5c0-0.2-0.1-0.4-0.2-0.5
	C9.7,5.9,9.5,5.9,9.4,5.9c0,0,0,0-0.1,0C9.1,5.9,8.9,6,8.9,6.1L5.7,9.6V0.7C5.7,0.3,5.4,0,5,0l0,0C4.6,0,4.3,0.3,4.3,0.7v8.8
	L1.1,6.1C0.8,5.8,0.4,5.8,0.1,6C-0.1,6.3-0.1,6.8,0.1,7z"/>
</svg>
