<?xml version="1.0" encoding="utf-8"?>
<!-- Generator: Adobe Illustrator 25.2.1, SVG Export Plug-In . SVG Version: 6.00 Build 0)  -->
<svg version="1.1" id="Layer_1" xmlns="http://www.w3.org/2000/svg" xmlns:xlink="http://www.w3.org/1999/xlink" x="0px" y="0px"
	 viewBox="0 0 12 16" style="enable-background:new 0 0 12 16;" xml:space="preserve">
<style type="text/css">
	.st0{opacity:0.35;}
</style>
<path class="st0" d="M12,6c0-3.3-2.7-6-6-6S0,2.7,0,6c0,0,0,0.1,0,0.1c0,0,0,0,0,0.1c0,0.1,0,0.2,0,0.3c0,0.1,0,0.1,0,0.2
	c0,0.1,0,0.2,0.1,0.4c0,0.1,0,0.2,0.1,0.3c0,0.1,0.1,0.2,0.1,0.3c0,0,0,0.1,0,0.1C1.3,11.3,4.8,16,6,16h0c1.2,0,4.7-4.7,5.7-8.1
	c0-0.1,0.1-0.2,0.1-0.3c0-0.1,0-0.1,0-0.2c0-0.2,0.1-0.3,0.1-0.5c0-0.1,0-0.2,0-0.3c0-0.1,0-0.2,0-0.4c0-0.1,0-0.1,0-0.2
	c0,0,0,0,0,0C12,6.1,12,6.1,12,6z M6,9.3c-2.1,0-3.7-1.7-3.7-3.7S3.9,1.9,6,1.9s3.7,1.7,3.7,3.7S8.1,9.3,6,9.3z"/>
</svg>
