<?xml version="1.0" encoding="utf-8"?>
<!-- Generator: Adobe Illustrator 25.2.1, SVG Export Plug-In . SVG Version: 6.00 Build 0)  -->
<svg version="1.1" id="Layer_1" xmlns="http://www.w3.org/2000/svg" xmlns:xlink="http://www.w3.org/1999/xlink" x="0px" y="0px"
	 viewBox="0 0 246 37" style="enable-background:new 0 0 246 37;" xml:space="preserve">
<style type="text/css">
	.st0{fill-rule:evenodd;clip-rule:evenodd;fill:#ED1A3B;}
	.st1{fill-rule:evenodd;clip-rule:evenodd;fill:#231F20;}
	.st2{fill-rule:evenodd;clip-rule:evenodd;fill:#FFFFFF;}
	.st3{fill:#FFFFFF;}
</style>
<g>
	<polygon class="st0" points="0,0 37,0 37,18.5 0,18.5 0,0 	"/>
	<polygon class="st1" points="0,18.5 37,18.5 37,37 0,37 0,18.5 	"/>
	<polygon class="st2" points="6.5,17.4 30.5,17.4 30.5,19.6 6.5,19.6 6.5,17.4 	"/>
</g>
<g>
	<path class="st3" d="M50.6,7c0-0.8,1-1.2,3.1-1.2c1.4,0,3,0.4,4.5,1L59,5.1c-1.6-0.8-3.3-1.3-5.4-1.3c-3.4,0-5.3,1.4-5.3,3.3
		c0,4.5,9.2,2.7,9.2,5.2c0,1-1.2,1.6-3.4,1.6c-1.8,0-3.4-0.4-5.2-1.4l-0.8,1.8c2,1.1,3.8,1.6,6,1.6c3.8,0,5.7-1.6,5.7-3.6
		C59.8,7.5,50.6,9.3,50.6,7z"/>
	<path class="st3" d="M50.6,24.3c0-0.8,1-1.2,3.1-1.2c1.4,0,3,0.4,4.5,1l0.8-1.7c-1.6-0.8-3.3-1.3-5.4-1.3c-3.4,0-5.3,1.4-5.3,3.3
		c0,4.5,9.2,2.7,9.2,5.2c0,1-1.2,1.6-3.4,1.6c-1.8,0-3.4-0.4-5.2-1.4l-0.8,1.8c2,1.1,3.8,1.6,6,1.6c3.8,0,5.7-1.6,5.7-3.6
		C59.8,24.7,50.6,26.6,50.6,24.3z"/>
	<path class="st3" d="M68.4,3.7c-3.7,0-6.7,2.5-6.7,6.1c0,3.7,3,6.1,6.7,6.1c3.7,0,6.7-2.4,6.7-6.1C75.1,6.2,72.1,3.7,68.4,3.7z
		 M68.4,14c-2.8,0-4.5-1.8-4.5-4.1c0-2.3,1.8-4.1,4.5-4.1c2.7,0,4.5,1.8,4.5,4.1C72.9,12.2,71.1,14,68.4,14z"/>
	<path class="st3" d="M83.9,15.9c2.3,0,4-0.6,5.5-1.7l-1.1-1.7c-1.1,0.8-2.5,1.4-4.2,1.4c-2.8,0-4.6-1.7-4.6-4.1
		c0-2.3,1.7-4.1,4.6-4.1c1.8,0,3.1,0.6,4.2,1.4l1.1-1.7c-1.5-1.1-3.1-1.7-5.4-1.7c-3.8,0-6.8,2.5-6.8,6.1
		C77.1,13.5,80,15.9,83.9,15.9z"/>
	<rect x="91.6" y="4.1" class="st3" width="2.1" height="11.5"/>
	<rect x="89.3" y="21.4" class="st3" width="2.1" height="11.5"/>
	<path class="st3" d="M100.6,28.1c0,1.8-0.5,3.3-2.8,3.3s-2.6-1.2-3.2-1.8l-1.2,1.6c0.9,1.3,2.5,2,4.3,2c2.6,0,4.8-1.7,5-4.2h0v-8
		h-2.1V28.1z"/>
	<polygon class="st3" points="107.8,13.7 99.1,13.7 99.1,10.7 105.6,10.7 105.6,8.8 99.1,8.8 99.1,6 107.4,6 107.4,4.1 96.9,4.1 
		96.9,15.6 107.8,15.6 	"/>
	<polygon class="st3" points="108.9,6 113.6,6 113.6,15.6 115.8,15.6 115.8,6 120.5,6 120.5,4.1 108.9,4.1 	"/>
	<polygon class="st3" points="124.3,10.7 130.8,10.7 130.8,8.8 124.3,8.8 124.3,6 132.7,6 132.7,4.1 122.2,4.1 122.2,15.6 133,15.6 
		133,13.7 124.3,13.7 	"/>
	<path class="st3" d="M150.9,13.2c-0.9,0.4-2.1,0.7-3.3,0.7c-2.8,0-4.6-1.7-4.6-4.1c0-2.3,1.7-4.1,4.6-4.1c1.8,0,3.1,0.6,4.2,1.4
		l1.1-1.7c-1.5-1.1-3.1-1.7-5.4-1.7c-3.8,0-6.8,2.5-6.8,6.1c0,3.7,2.9,6.1,6.8,6.1c2,0,4-0.6,5.5-1.6V9.9h-2.1V13.2z"/>
	<polygon class="st3" points="157.9,10.7 164.4,10.7 164.4,8.8 157.9,8.8 157.9,6 166.3,6 166.3,4.1 155.8,4.1 155.8,15.6 
		166.7,15.6 166.7,13.7 157.9,13.7 	"/>
	<path class="st3" d="M178.4,7.1c0,1.7,0,3.5,0.1,5.7l-0.1,0l-7.5-8.7h-2.2v11.5h2.1v-3c0-1,0-3.9-0.1-5.7l0,0l7.5,8.7h2.2V4.1h-2.1
		V7.1z"/>
	<polygon class="st3" points="185.6,10.7 192.1,10.7 192.1,8.8 185.6,8.8 185.6,6 193.9,6 193.9,4.1 183.5,4.1 183.5,15.6 
		194.3,15.6 194.3,13.7 185.6,13.7 	"/>
	<path class="st3" d="M208,7.8c0-2.2-1.5-3.7-4-3.7h-7.4v11.5h2.1v-4.2h3.4l3.3,4.2h2.7l-3.4-4.3C206.5,11.1,208,9.9,208,7.8z
		 M198.7,9.5V6h5.3c1.2,0,1.9,0.7,1.9,1.8c0,1-0.8,1.7-2.1,1.7H198.7z"/>
	<path class="st3" d="M73.1,25.1c0-2.2-1.5-3.7-4-3.7h-7.4v11.5h2.1v-4.2h3.4l3.3,4.2h2.7l-3.4-4.3C71.6,28.3,73.1,27.1,73.1,25.1z
		 M63.8,26.7v-3.5h5.3c1.2,0,1.9,0.7,1.9,1.8c0,1-0.8,1.7-2.1,1.7H63.8z"/>
	<path class="st3" d="M85.2,26c0.7,0,0.9-1,0.9-1.3c0-2.2-1.5-3.3-4-3.3h-4.3h-2.1h0v11.5h0h2.1h5.3c2.5,0,4-1.5,4-3.7
		C87.1,28,86.9,26.3,85.2,26z M82.1,23.3c1.2,0,1.9,0.2,1.9,1.2s-0.5,1.2-1.9,1.2s-4.3,0-4.3,0v-2.3H82.1z M83.2,31h-5.3v-3.5h5
		c1.3,0,2.1,0.7,2.1,1.7C85,30.3,84.4,31,83.2,31z"/>
	<path class="st3" d="M214.4,4.1l-5.6,11.5h2.3l1.3-2.8h6.2l1.3,2.8h2.3l-5.6-11.5H214.4z M213.3,11l2.2-4.7l2.2,4.7H213.3z"/>
	<path class="st3" d="M109.2,21.4l-5.6,11.5h2.3l1.3-2.8h6.2l1.3,2.8h2.3l-5.6-11.5H109.2z M108.2,28.2l2.2-4.7l2.2,4.7H108.2z"/>
	<polygon class="st3" points="226,4.1 223.9,4.1 223.9,15.6 233.7,15.6 233.7,13.7 226,13.7 	"/>
	<polygon class="st3" points="237.3,13.7 237.3,10.7 243.8,10.7 243.8,8.8 237.3,8.8 237.3,6 245.6,6 245.6,4.1 235.1,4.1 
		235.1,15.6 246,15.6 246,13.7 	"/>
</g>
</svg>
