<?xml version="1.0" encoding="utf-8"?>
<!-- Generator: Adobe Illustrator 25.2.1, SVG Export Plug-In . SVG Version: 6.00 Build 0)  -->
<svg version="1.1" id="Layer_1" xmlns="http://www.w3.org/2000/svg" xmlns:xlink="http://www.w3.org/1999/xlink" x="0px" y="0px"
	 viewBox="0 0 15 15" style="enable-background:new 0 0 15 15;" xml:space="preserve">
<style type="text/css">
	.st0{opacity:0.35;}
</style>
<g>
	<g class="st0">
		<path d="M11.1,15H3.9C1.8,15,0,13.2,0,11.1V3.9C0,1.8,1.8,0,3.9,0h7.2C13.2,0,15,1.8,15,3.9v7.2C15,13.2,13.2,15,11.1,15z
			 M3.9,1.3c-1.5,0-2.6,1.2-2.6,2.6v7.2c0,1.5,1.2,2.6,2.6,2.6h7.2c1.5,0,2.6-1.2,2.6-2.6V3.9c0-1.5-1.2-2.6-2.6-2.6H3.9z"/>
	</g>
	<g class="st0">
		<path d="M7.5,11.8c-2.4,0-4.3-1.9-4.3-4.3s1.9-4.3,4.3-4.3s4.3,1.9,4.3,4.3S9.9,11.8,7.5,11.8z M7.5,4.5c-1.7,0-3,1.4-3,3
			c0,1.7,1.4,3,3,3c1.7,0,3-1.4,3-3C10.5,5.8,9.2,4.5,7.5,4.5z"/>
	</g>
	<circle class="st0" cx="11.6" cy="3.1" r="0.7"/>
</g>
</svg>
