<?xml version="1.0" encoding="utf-8"?>
<!-- Generator: Adobe Illustrator 25.2.1, SVG Export Plug-In . SVG Version: 6.00 Build 0)  -->
<svg version="1.1" id="Layer_1" xmlns="http://www.w3.org/2000/svg" xmlns:xlink="http://www.w3.org/1999/xlink" x="0px" y="0px"
	 viewBox="0 0 23 23" style="enable-background:new 0 0 23 23;" xml:space="preserve">
<style type="text/css">
	.st0{fill:#FFFFFF;}
</style>
<path class="st0" d="M16.7,2.9C12.8-1.1,6.4-1,2.6,3.2C-0.9,7-0.8,13,2.8,16.7c3.5,3.6,9.1,3.9,12.9,0.9l4.8,4.8
	c0.5,0.5,1.4,0.5,1.9,0l0,0c0.5-0.5,0.5-1.4,0-1.9l-4.8-4.8C20.5,11.9,20.2,6.4,16.7,2.9z M15.1,15.1c-2.9,2.9-7.6,2.9-10.5,0
	s-2.9-7.6,0-10.5s7.6-2.9,10.5,0S18,12.2,15.1,15.1z"/>
</svg>
