<?xml version="1.0" encoding="utf-8"?>
<!-- Generator: Adobe Illustrator 25.2.1, SVG Export Plug-In . SVG Version: 6.00 Build 0)  -->
<svg version="1.1" id="Layer_1" xmlns="http://www.w3.org/2000/svg" xmlns:xlink="http://www.w3.org/1999/xlink" x="0px" y="0px"
	 viewBox="0 0 15 9" style="enable-background:new 0 0 15 9;" xml:space="preserve">
<style type="text/css">
	.st0{fill:#FFFFFF;}
</style>
<path class="st0" d="M14.7,7.1L8.1,0.5c-0.3-0.3-1-0.3-1.3,0L0.4,7.1C0.2,7.3,0.1,7.6,0.1,7.9c0,0.3,0.2,0.5,0.3,0.7
	c0.2,0.2,0.4,0.3,0.7,0.3c0.3,0,0.6-0.1,0.8-0.4l5.6-5.8l5.7,5.8c0.4,0.4,1,0.4,1.5,0.1C15,8.1,15,7.5,14.7,7.1z M1.5,8.1L1.5,8.1
	L1.5,8.1L1.5,8.1z"/>
</svg>
