<?xml version="1.0" encoding="utf-8"?>
<!-- Generator: Adobe Illustrator 25.2.1, SVG Export Plug-In . SVG Version: 6.00 Build 0)  -->
<svg version="1.1" id="Layer_1" xmlns="http://www.w3.org/2000/svg" xmlns:xlink="http://www.w3.org/1999/xlink" x="0px" y="0px"
	 viewBox="0 0 19 20" style="enable-background:new 0 0 19 20;" xml:space="preserve">
<style type="text/css">
	.st0{opacity:0.35;}
</style>
<path class="st0" d="M18.8,10.9c0-1.3-0.4-2.2-1-2.8C17.7,3.7,14,0.1,9.5,0.1C5,0.1,1.3,3.6,1.1,8.1c-0.6,0.6-1,1.5-1,2.8
	c0,2.9,1.9,3.9,3.6,3.9c1.9,0,1.9-2.3,1.9-3.9c0-1.5,0-3.9-1.9-3.9C3.3,7,2.7,7.2,2.2,7.4c0.5-3.6,3.6-6.3,7.3-6.3
	c3.7,0,6.8,2.8,7.3,6.3C16.3,7.2,15.7,7,15.2,7c-1.9,0-1.9,2.3-1.9,3.9c0,1.5,0,3.9,1.9,3.9c0,0,0,0,0,0c0.1,0.3,0.1,1-0.6,1.9
	c-0.7,1-1.7,1-2.2,0.9c-0.2-1.5-1.6-1.5-2.7-1.5c-1.2,0-2.7,0-2.7,1.9c0,1.9,1.5,1.9,2.7,1.9c1.1,0,2.4,0,2.7-1.3c0.1,0,0.3,0,0.5,0
	c0.9,0,1.9-0.3,2.6-1.4c0.8-1.2,0.8-2.1,0.7-2.6C17.6,14.3,18.8,13.2,18.8,10.9z M4.7,10.9c0,2.1-0.2,2.9-0.9,2.9
	c-0.8,0-2.6-0.3-2.6-2.9C1.2,8.3,3,8,3.8,8C4.4,8,4.7,8.8,4.7,10.9z M9.8,18.9c-1.4,0-1.7-0.1-1.7-0.9s0.3-0.9,1.7-0.9
	c1.4,0,1.7,0.1,1.7,0.9S11.2,18.9,9.8,18.9z M15.2,13.8c-0.6,0-0.9-0.8-0.9-2.9S14.6,8,15.2,8c0.8,0,2.6,0.3,2.6,2.9
	C17.8,13.5,16,13.8,15.2,13.8z"/>
</svg>
