<?xml version="1.0" encoding="utf-8"?>
<!-- Generator: Adobe Illustrator 25.2.1, SVG Export Plug-In . SVG Version: 6.00 Build 0)  -->
<svg version="1.1" id="Layer_1" xmlns="http://www.w3.org/2000/svg" xmlns:xlink="http://www.w3.org/1999/xlink" x="0px" y="0px"
	 viewBox="0 0 32 29" style="enable-background:new 0 0 32 29;" xml:space="preserve">
<style type="text/css">
	.st0{fill:#FFFFFF;}
</style>
<g>
	<g>
		<path class="st0" d="M6.8,28.8c-1,0-2-0.4-2.8-1.2l-1.8-1.8c-1.7-1.7-1.7-4.3,0-6L9.9,12c0.1-0.1,0.9-0.7,1.7-0.7
			c0.3,0,0.5,0.2,0.5,0.5s-0.2,0.5-0.5,0.5c-0.4,0-0.9,0.4-1,0.5l-7.7,7.7c-1.3,1.3-1.3,3.4,0,4.6l1.6,1.6c1.3,1.3,3.3,1.3,4.6,0
			l8.5-8.5c1.2-1.2,1.2-3.1,0-4.3c-0.7-0.9-2-2-2.7-1.9c-0.3,0-0.5-0.1-0.6-0.4c0-0.3,0.1-0.5,0.4-0.6c1.5-0.3,3.4,2,3.6,2.2
			c1.5,1.5,1.5,4.1,0,5.6l-8.6,8.6C8.8,28.4,7.8,28.8,6.8,28.8z"/>
	</g>
	<g>
		<path class="st0" d="M17.1,18.1c-0.2,0-0.8-0.1-1.3-0.6l-1.8-1.8c-1.7-1.7-1.7-4.3,0-6l8.3-8.3c1.7-1.7,4.3-1.7,6,0L29.9,3
			c1.7,1.7,1.7,4.3,0,6l-7.6,7.6c0,0-0.6,0.7-1.6,0.9c-0.3,0-0.5-0.1-0.6-0.4c0-0.3,0.1-0.5,0.4-0.6c0.7-0.1,1.1-0.6,1.1-0.6
			l7.7-7.7c1.3-1.3,1.3-3.3,0-4.6l-1.8-1.8c-1.2-1.2-3.1-1.2-4.3,0l-8.5,8.5c-1.3,1.3-1.3,3.3,0,4.6l1.8,1.8
			c0.3,0.3,0.6,0.3,0.6,0.3c0.3,0,0.5,0.2,0.5,0.5C17.6,17.8,17.4,18,17.1,18.1C17.1,18.1,17.1,18.1,17.1,18.1z"/>
	</g>
</g>
</svg>
