<?xml version="1.0" encoding="utf-8"?>
<!-- Generator: Adobe Illustrator 25.2.1, SVG Export Plug-In . SVG Version: 6.00 Build 0)  -->
<svg version="1.1" id="Layer_1" xmlns="http://www.w3.org/2000/svg" xmlns:xlink="http://www.w3.org/1999/xlink" x="0px" y="0px"
	 viewBox="0 0 16 19" style="enable-background:new 0 0 16 19;" xml:space="preserve">
<style type="text/css">
	.st0{fill:#ED1A3A;}
</style>
<path class="st0" d="M15.6,7.8L8.7,0.3c-0.4-0.4-1-0.4-1.4,0L0.5,7.7C0.3,7.9,0.2,8.2,0.2,8.5c0,0.3,0.2,0.6,0.3,0.7
	C0.7,9.4,1,9.5,1.2,9.5c0,0,0,0,0.1,0c0.3,0,0.6-0.2,0.7-0.4l4.9-5.4v13.8c0,0.6,0.5,1.1,1.1,1.1h0c0.6,0,1.1-0.5,1.1-1.1V3.8l5,5.4
	c0.4,0.4,1.1,0.4,1.5,0.1C15.9,8.8,15.9,8.1,15.6,7.8z"/>
</svg>
