<svg xmlns="http://www.w3.org/2000/svg" viewBox="0 0 100.63 29.82"><defs><style>.cls-1{fill:#a8a8a8;}.cls-2,.cls-3{fill:#fff;}.cls-3{stroke:#fff;stroke-miterlimit:10;stroke-width:0.25px;}</style></defs><g id="Layer_2" data-name="Layer 2"><g id="Grid"><rect class="cls-1" width="100.63" height="29.82" rx="2.68"/><g id="bag"><g id="handles"><path class="cls-2" d="M26.7,5.53c-.91.33-1.58.6-1.58,2.34v.84l.55-.11V7.88c0-1.19.29-1.43,1.09-1.78A2.37,2.37,0,0,0,26.7,5.53Z"/><path class="cls-2" d="M28.29,5.16a4.21,4.21,0,0,1,.09.55c1.43-.2,1.4.39,1.4,1.62v.45l.54-.11V7.33C30.32,5.41,30,4.9,28.29,5.16Z"/><path class="cls-2" d="M22.66,9.21V6.69c0-1.56.79-2,2.27-2.38,2.24-.53,2.38.92,2.38,1.83V8.27l.55-.11v-2c0-1.74-.55-3-3-2.47-1.34.3-2.71.64-2.71,2.92V9.31Z"/></g><path class="cls-2" d="M33.06,7.79l-15,3V21.74l15.05,3,3-1.09V8.88ZM24.58,19.48,21.24,19V16.24h3.34Zm0-3.67H21.24V13.26l3.34-.47Zm4.63,4.31L25,19.5V16.24h4.21Zm0-4.31H25v-3l4.21-.62Z"/></g><path class="cls-3" d="M48.06,13.76H47.6l-1.77-6A3.46,3.46,0,0,1,45.68,7h0a3.4,3.4,0,0,1-.17.75l-1.89,6h-.46l-2.37-8h.62l1.82,6.39c.07.26.13.49.17.71h0a.69.69,0,0,1,0-.13c0-.06.73-2.38,2.14-7h.28l1.81,6.39c.08.33.14.56.17.71h0l0-.17L49.8,5.78h.59Z"/><path class="cls-3" d="M51.73,6.63a.39.39,0,0,1-.3-.13.42.42,0,0,1-.13-.31.38.38,0,0,1,.13-.29.44.44,0,0,1,.3-.12.48.48,0,0,1,.3.11.38.38,0,0,1,.13.3A.42.42,0,0,1,52,6.5.43.43,0,0,1,51.73,6.63Zm-.25,7.13V8.06H52v5.7Z"/><path class="cls-3" d="M57.57,13.76V10.44c0-1.37-.49-2-1.48-2a1.74,1.74,0,0,0-1.35.6,2.2,2.2,0,0,0-.53,1.5v3.27H53.7V8.06h.51v1h0a2.07,2.07,0,0,1,2-1.18,1.74,1.74,0,0,1,1.42.61,2.81,2.81,0,0,1,.48,1.76v3.47Z"/><path class="cls-3" d="M63.73,13.76v-1h0a2.08,2.08,0,0,1-.83.86,2.39,2.39,0,0,1-1.22.32,2.13,2.13,0,0,1-1.72-.78A3.15,3.15,0,0,1,59.27,11a3.71,3.71,0,0,1,.33-1.59,2.5,2.5,0,0,1,.92-1.1,2.36,2.36,0,0,1,1.36-.4A1.89,1.89,0,0,1,63.7,9h0V5.32h.51v8.44Zm0-3.47a1.9,1.9,0,0,0-.52-1.36,1.79,1.79,0,0,0-1.34-.54,1.84,1.84,0,0,0-1.49.7A2.89,2.89,0,0,0,59.8,11a2.86,2.86,0,0,0,.51,1.79,1.63,1.63,0,0,0,1.37.67,1.94,1.94,0,0,0,1.48-.58,2,2,0,0,0,.57-1.49Z"/><path class="cls-3" d="M68.23,13.9a2.51,2.51,0,0,1-2-.81,3.1,3.1,0,0,1-.73-2.15,3.15,3.15,0,0,1,.74-2.2,2.59,2.59,0,0,1,2-.82,2.44,2.44,0,0,1,1.92.8,3.23,3.23,0,0,1,.71,2.2,3.13,3.13,0,0,1-.74,2.16A2.52,2.52,0,0,1,68.23,13.9Zm0-5.51a2,2,0,0,0-1.6.68,2.76,2.76,0,0,0-.6,1.88,2.66,2.66,0,0,0,.59,1.81,2,2,0,0,0,1.59.67,1.93,1.93,0,0,0,1.58-.67,2.75,2.75,0,0,0,.56-1.85A2.78,2.78,0,0,0,69.84,9,2,2,0,0,0,68.27,8.39Z"/><path class="cls-3" d="M77.05,13.76h-.47l-1.24-4.3A2.23,2.23,0,0,1,75.25,9h0a2.24,2.24,0,0,1-.11.46l-1.39,4.31h-.48l-1.72-5.7h.57l1.32,4.55a2.37,2.37,0,0,1,.08.48h0a4.4,4.4,0,0,1,.11-.48l1.45-4.55h.35l1.29,4.55a3.16,3.16,0,0,1,.07.48h0a2.08,2.08,0,0,1,.09-.48L78.3,8.06h.52Z"/><path class="cls-3" d="M79.53,13.51v-.62a2,2,0,0,0,.67.38,2.06,2.06,0,0,0,.74.16c.89,0,1.34-.36,1.34-1.1a.86.86,0,0,0-.27-.62,3.75,3.75,0,0,0-1-.57,3.39,3.39,0,0,1-1.13-.71,1.37,1.37,0,0,1-.35-1,1.38,1.38,0,0,1,.53-1.11,2,2,0,0,1,1.31-.44,2.5,2.5,0,0,1,1.26.3V8.8a2.45,2.45,0,0,0-1.31-.41,1.38,1.38,0,0,0-.91.29,1,1,0,0,0-.35.76,1,1,0,0,0,.11.51,1.07,1.07,0,0,0,.35.36,4.61,4.61,0,0,0,.72.37,3.87,3.87,0,0,1,1.23.75,1.25,1.25,0,0,1,.33.9,1.41,1.41,0,0,1-.53,1.14,2.16,2.16,0,0,1-1.39.43A2.29,2.29,0,0,1,79.53,13.51Z"/><path class="cls-3" d="M42.05,21v3.2H41.5v-8h1.93a2.74,2.74,0,0,1,1.88.57A2.12,2.12,0,0,1,46,18.42a2.41,2.41,0,0,1-.75,1.85,2.85,2.85,0,0,1-2,.69Zm0-4.27v3.77h1.14a2.31,2.31,0,0,0,1.64-.52,1.83,1.83,0,0,0,.56-1.45c0-1.2-.69-1.8-2.06-1.8Z"/><path class="cls-3" d="M51.35,24.16V20.74A2.39,2.39,0,0,0,51,19.26a1.37,1.37,0,0,0-1.15-.47,1.67,1.67,0,0,0-.94.28,1.94,1.94,0,0,0-.66.78A2.67,2.67,0,0,0,48,21v3.15h-.51V15.73H48v3.76h0a2.15,2.15,0,0,1,2-1.17,1.7,1.7,0,0,1,1.41.6,2.64,2.64,0,0,1,.48,1.71v3.53Z"/><path class="cls-3" d="M55.75,24.3a2.52,2.52,0,0,1-2-.81,3.07,3.07,0,0,1-.73-2.14,3.11,3.11,0,0,1,.75-2.21,2.58,2.58,0,0,1,2-.82,2.41,2.41,0,0,1,1.92.81,3.19,3.19,0,0,1,.71,2.19,3.13,3.13,0,0,1-.74,2.16A2.48,2.48,0,0,1,55.75,24.3Zm0-5.51a2,2,0,0,0-1.6.68,2.78,2.78,0,0,0-.6,1.89,2.65,2.65,0,0,0,.59,1.8,2,2,0,0,0,1.59.67,1.93,1.93,0,0,0,1.58-.67,2.75,2.75,0,0,0,.56-1.85,2.8,2.8,0,0,0-.55-1.87A1.94,1.94,0,0,0,55.78,18.79Z"/><path class="cls-3" d="M63.61,24.16V20.85c0-1.37-.49-2.06-1.48-2.06a1.74,1.74,0,0,0-1.35.6,2.2,2.2,0,0,0-.53,1.5v3.27h-.51v-5.7h.51v1h0a2.08,2.08,0,0,1,1.95-1.18,1.68,1.68,0,0,1,1.41.62,2.7,2.7,0,0,1,.49,1.75v3.47Z"/><path class="cls-3" d="M65.84,21.33a2.8,2.8,0,0,0,.55,1.85,1.84,1.84,0,0,0,1.48.65,3,3,0,0,0,1.87-.7v.54a3.33,3.33,0,0,1-2,.63A2.19,2.19,0,0,1,66,23.49a3.35,3.35,0,0,1-.67-2.21,3.44,3.44,0,0,1,.33-1.51,2.58,2.58,0,0,1,.92-1.06,2.29,2.29,0,0,1,1.3-.39,2,2,0,0,1,1.62.74,3.21,3.21,0,0,1,.58,2.05v.22Zm3.69-.46a2.63,2.63,0,0,0-.48-1.54,1.49,1.49,0,0,0-1.21-.54,1.77,1.77,0,0,0-1.33.54,2.64,2.64,0,0,0-.65,1.54Z"/></g></g></svg>