<svg xmlns="http://www.w3.org/2000/svg" xmlns:xlink="http://www.w3.org/1999/xlink" viewBox="0 0 100.63 29.82"><defs><style>.cls-1{fill:none;}.cls-2{fill:#a8a8a8;}.cls-3{fill:#e1e1e1;}.cls-4{fill:#fff;}.cls-5{clip-path:url(#clip-path);}.cls-6{fill:url(#linear-gradient);}.cls-7{fill:url(#linear-gradient-2);}.cls-8{fill:url(#linear-gradient-3);}.cls-9{fill:url(#linear-gradient-4);}</style><clipPath id="clip-path"><path class="cls-1" d="M22.32,11.36,18.13,9,10.05,4.57c-.44-.25-.89-.1-.89.42V23.22c0,.39.32.56.71.34L18.13,19l4.19-2.32,4-2.23c.47-.26.43-.62,0-.82S22.32,11.36,22.32,11.36Z"/></clipPath><linearGradient id="linear-gradient" x1="14.35" y1="4.14" x2="14.35" y2="23.88" gradientUnits="userSpaceOnUse"><stop offset="0" stop-color="#207cb0"/><stop offset="0.38" stop-color="#3cb2bf"/><stop offset="0.8" stop-color="#58e9ce"/><stop offset="1" stop-color="#63ffd4"/></linearGradient><linearGradient id="linear-gradient-2" x1="9.16" y1="9.04" x2="22.32" y2="9.04" gradientUnits="userSpaceOnUse"><stop offset="0" stop-color="#4bc3ae"/><stop offset="1" stop-color="#dee999"/></linearGradient><linearGradient id="linear-gradient-3" x1="15.74" y1="14.01" x2="15.74" y2="23.96" gradientUnits="userSpaceOnUse"><stop offset="0" stop-color="#ec403d"/><stop offset="0.38" stop-color="#c93b75"/><stop offset="0.8" stop-color="#a636ac"/><stop offset="1" stop-color="#9934c2"/></linearGradient><linearGradient id="linear-gradient-4" x1="23.32" y1="11.36" x2="23.32" y2="16.66" gradientUnits="userSpaceOnUse"><stop offset="0" stop-color="#f87"/><stop offset="0.61" stop-color="#ffb175"/><stop offset="1" stop-color="#ffc774"/></linearGradient></defs><g id="Layer_2" data-name="Layer 2"><g id="Grid"><rect class="cls-2" width="100.63" height="29.82" rx="2.68"/><path class="cls-3" d="M35.87,5a2,2,0,0,1,1.46.62l-.48.54a1.27,1.27,0,0,0-1-.4c-.86,0-1.44.67-1.44,1.76S35,9.32,35.93,9.32a1.1,1.1,0,0,0,.7-.21v-1h-.92V7.35H37.4V9.5a2.36,2.36,0,0,1-1.57.58,2.25,2.25,0,0,1-2.28-2.51A2.31,2.31,0,0,1,35.87,5Z"/><path class="cls-3" d="M39.84,6.24c1,0,1.51.71,1.51,1.73a2.15,2.15,0,0,1,0,.41H39a1,1,0,0,0,1.08,1,1.52,1.52,0,0,0,.85-.26l.29.53a2.32,2.32,0,0,1-1.25.4,1.77,1.77,0,0,1-1.8-1.92A1.77,1.77,0,0,1,39.84,6.24Zm.77,1.59c0-.58-.25-.93-.75-.93s-.8.32-.88.93Z"/><path class="cls-3" d="M42.19,7h-.52V6.37l.57,0,.1-1h.72v1H44V7h-.93V8.75c0,.43.16.64.51.64A1.12,1.12,0,0,0,44,9.31l.15.63a2.23,2.23,0,0,1-.75.14c-.85,0-1.16-.54-1.16-1.33Z"/><path class="cls-3" d="M46.19,5.2a.49.49,0,0,1,.53-.49.49.49,0,1,1,0,1A.49.49,0,0,1,46.19,5.2Zm.1,1.13h.85V10h-.85Z"/><path class="cls-3" d="M48.37,7h-.53V6.37l.57,0,.11-1h.71v1h.93V7h-.93V8.75c0,.43.17.64.52.64a1.23,1.23,0,0,0,.38-.08l.14.63a2.21,2.21,0,0,1-.74.14c-.85,0-1.16-.54-1.16-1.33Z"/><path class="cls-3" d="M54,6.24A1.77,1.77,0,0,1,55.7,8.16a1.75,1.75,0,1,1-3.48,0A1.77,1.77,0,0,1,54,6.24Zm0,3.14c.54,0,.86-.49.86-1.22S54.5,6.94,54,6.94s-.86.48-.86,1.22S53.42,9.38,54,9.38Z"/><path class="cls-3" d="M56.56,6.33h.7l.06.49h0a1.7,1.7,0,0,1,1.2-.58c.79,0,1.13.53,1.13,1.45V10h-.86V7.8c0-.6-.17-.82-.57-.82a1.16,1.16,0,0,0-.84.45V10h-.85Z"/><path class="cls-4" d="M76.44,22.85a2.61,2.61,0,0,1-1.06-.21,2.15,2.15,0,0,1-.81-.66H74.5a6.88,6.88,0,0,1,.07,1v2.45h-.9V16.78h.73l.13.82h0a2,2,0,0,1,.81-.71,2.39,2.39,0,0,1,1.06-.22,2.2,2.2,0,0,1,1.83.81,3.58,3.58,0,0,1,.65,2.28A3.52,3.52,0,0,1,78.26,22,2.21,2.21,0,0,1,76.44,22.85Zm-.13-5.41a1.61,1.61,0,0,0-1.32.5,2.65,2.65,0,0,0-.42,1.61v.21A3,3,0,0,0,75,21.55a1.57,1.57,0,0,0,1.34.55,1.39,1.39,0,0,0,1.21-.63A2.9,2.9,0,0,0,78,19.75,2.82,2.82,0,0,0,77.54,18,1.45,1.45,0,0,0,76.31,17.44Z"/><path class="cls-4" d="M81,22.74h-.9V14.28H81Z"/><path class="cls-4" d="M86.2,22.74,86,21.89h0a2.49,2.49,0,0,1-.89.76,2.62,2.62,0,0,1-1.11.2,2,2,0,0,1-1.39-.46,1.67,1.67,0,0,1-.5-1.3c0-1.2,1-1.83,2.89-1.89l1,0V18.8a1.52,1.52,0,0,0-.3-1,1.26,1.26,0,0,0-1-.33,3.81,3.81,0,0,0-1.68.46l-.28-.7a4.07,4.07,0,0,1,1-.37,4.23,4.23,0,0,1,1.06-.14,2.26,2.26,0,0,1,1.58.48,2,2,0,0,1,.51,1.51v4.07Zm-2-.63a1.84,1.84,0,0,0,1.33-.47A1.7,1.7,0,0,0,86,20.35v-.54l-.91,0a3.34,3.34,0,0,0-1.55.33,1,1,0,0,0-.47.93.92.92,0,0,0,.29.74A1.25,1.25,0,0,0,84.16,22.11Z"/><path class="cls-4" d="M87.39,16.78h1l1.31,3.4a14.61,14.61,0,0,1,.53,1.68h0c0-.18.14-.5.29-.95s.65-1.83,1.48-4.13h1l-2.56,6.79A3.45,3.45,0,0,1,89.54,25a1.91,1.91,0,0,1-1.25.42,3.75,3.75,0,0,1-.82-.09V24.6a2.76,2.76,0,0,0,.67.07,1.39,1.39,0,0,0,1.33-1.05l.33-.84Z"/><path class="cls-4" d="M59.71,17.33a2,2,0,0,1-.16,3.46.89.89,0,0,0-.35.61.71.71,0,0,0,.32.54l.45.35A2.16,2.16,0,0,1,61,24c0,1.17-1.13,2.36-3.28,2.36-1.81,0-2.68-.86-2.68-1.78a1.8,1.8,0,0,1,1-1.53,5.43,5.43,0,0,1,2.38-.57,1.32,1.32,0,0,1-.37-.85,1.18,1.18,0,0,1,.12-.49,2.69,2.69,0,0,1-.4,0,2,2,0,0,1-2.07-2,2.27,2.27,0,0,1,.8-1.67,3.38,3.38,0,0,1,2.23-.69h2.57l-.79.45Zm-.88,5.54h-.29a4.77,4.77,0,0,0-1.31.2,1.41,1.41,0,0,0-1.07,1.28c0,.89.86,1.53,2.19,1.53s1.84-.58,1.84-1.35S59.77,23.55,58.83,22.87Zm.36-2.37a1.28,1.28,0,0,0,.31-.91c0-.9-.54-2.29-1.57-2.29a1.18,1.18,0,0,0-.88.41,1.44,1.44,0,0,0-.27.92c0,.84.49,2.22,1.56,2.22A1.28,1.28,0,0,0,59.19,20.5Z"/><path class="cls-4" d="M51.86,22.67a2.94,2.94,0,0,1-3-2.94,3.08,3.08,0,0,1,3.23-3,2.91,2.91,0,0,1,3,2.94A3,3,0,0,1,51.86,22.67Zm1.56-1a2.21,2.21,0,0,0,.37-1.38c0-1.1-.52-3.19-2.07-3.19a1.75,1.75,0,0,0-1.12.43A1.89,1.89,0,0,0,50,19c0,1.23.61,3.26,2.12,3.26A1.61,1.61,0,0,0,53.42,21.66Z"/><path class="cls-4" d="M45.11,22.67a2.94,2.94,0,0,1-3-2.94,3.09,3.09,0,0,1,3.23-3,2.91,2.91,0,0,1,3,2.94A3,3,0,0,1,45.11,22.67Zm1.56-1A2.21,2.21,0,0,0,47,20.28c0-1.1-.52-3.19-2.07-3.19a1.75,1.75,0,0,0-1.12.43A1.89,1.89,0,0,0,43.28,19c0,1.23.61,3.26,2.12,3.26A1.61,1.61,0,0,0,46.67,21.66Z"/><path class="cls-4" d="M41.12,22.48l-1.79.41a13.71,13.71,0,0,1-2.06.21,4.44,4.44,0,0,1-4.77-4.53,4.73,4.73,0,0,1,5-4.68,7.36,7.36,0,0,1,1.92.26,4.88,4.88,0,0,1,1.65.78l-1,1-.44.1.32-.5a3.56,3.56,0,0,0-2.68-1.18A3.46,3.46,0,0,0,33.81,18a4.42,4.42,0,0,0,4.43,4.57,3.73,3.73,0,0,0,1.59-.31v-2l-1.89.1,1-.54H41.6l-.33.32a.25.25,0,0,0-.12.2,5.74,5.74,0,0,0,0,.6Z"/><path class="cls-4" d="M63.67,22.12c-.41,0-.5-.11-.5-.61V14.43a.22.22,0,0,1,0-.08c0-.44.17-.51.56-.74H62l-.94.45h1v7.73c0,.25,0,.29-.34.66h2.21l.47-.27C64.1,22.15,63.88,22.14,63.67,22.12Z"/><path class="cls-4" d="M68.76,22.23a3.23,3.23,0,0,1-.41.22,2.82,2.82,0,0,1-1.2.24,2.66,2.66,0,0,1-1.66-.48,3.23,3.23,0,0,1-1.27-2.63,2.82,2.82,0,0,1,2.85-2.87,2.37,2.37,0,0,1,1.28.35,2,2,0,0,1,.87,1.23L66.3,19.47l-1,.08a2.76,2.76,0,0,0,2.57,2.5,3.2,3.2,0,0,0,1.51-.44Zm-1.17-3.7c.24-.09.37-.17.37-.34a1.23,1.23,0,0,0-1.24-1.07,1.54,1.54,0,0,0-1.43,1.73c0,.21,0,.43,0,.66Z"/><path class="cls-4" d="M70,16.8v.82h-.1V16.8h-.27v-.09h.64v.09Z"/><path class="cls-4" d="M71.08,17.62v-.83h0l-.26.83h-.07l-.26-.83h0v.83H70.4v-.91h.15l.23.73h0l.22-.73h.16v.91Z"/><g id="PLAY"><g class="cls-5"><polygon class="cls-6" points="9.16 4.14 9.16 14.01 9.16 23.88 19.54 14.01 9.16 4.14"/><polygon class="cls-7" points="22.32 11.36 18.14 9.04 9.16 4.07 9.16 4.14 19.54 14.01 22.32 11.36"/><polygon class="cls-8" points="9.16 23.88 9.16 23.95 18.14 18.98 22.32 16.66 19.54 14.01 9.16 23.88"/><polygon class="cls-9" points="22.32 11.36 19.54 14.01 22.32 16.66 27.11 14.01 22.32 11.36"/></g></g></g></g></svg>