<svg xmlns="http://www.w3.org/2000/svg" viewBox="0 0 100.63 29.82"><defs><style>.cls-1{fill:#a8a8a8;}.cls-2{fill:#fff;}</style></defs><g id="Layer_2" data-name="Layer 2"><g id="Grid"><rect class="cls-1" width="100.63" height="29.82" rx="2.68"/><path class="cls-2" d="M23.56,14.77a4.35,4.35,0,0,1,2.06-3.63,4.43,4.43,0,0,0-3.49-1.88c-1.47-.16-2.89.88-3.64.88s-1.91-.87-3.15-.84a4.65,4.65,0,0,0-3.91,2.38c-1.69,2.93-.43,7.23,1.19,9.59.81,1.16,1.76,2.45,3,2.41s1.66-.77,3.13-.77,1.87.77,3.13.74,2.12-1.16,2.9-2.33a9.34,9.34,0,0,0,1.33-2.71A4.18,4.18,0,0,1,23.56,14.77Z"/><path class="cls-2" d="M21.17,7.7a4.27,4.27,0,0,0,1-3A4.36,4.36,0,0,0,19.34,6.1a4.05,4.05,0,0,0-1,2.94A3.59,3.59,0,0,0,21.17,7.7Z"/><path class="cls-2" d="M41.11,23.51H39.42l-.93-2.91H35.27l-.89,2.91H32.74l3.19-9.92h2Zm-2.9-4.14-.84-2.59c-.09-.26-.25-.89-.5-1.87h0c-.09.42-.25,1.05-.47,1.87l-.82,2.59Z"/><path class="cls-2" d="M49.32,19.85a4,4,0,0,1-1,2.88,2.88,2.88,0,0,1-2.2.94,2.19,2.19,0,0,1-2-1v3.75h-1.6v-7.7c0-.77,0-1.55,0-2.35h1.39l.09,1.13h0a2.83,2.83,0,0,1,4.53-.28A4,4,0,0,1,49.32,19.85Zm-1.62,0a3,3,0,0,0-.47-1.72,1.65,1.65,0,0,0-1.39-.71,1.72,1.72,0,0,0-1.07.39,1.86,1.86,0,0,0-.62,1,2.15,2.15,0,0,0-.08.48v1.2a1.92,1.92,0,0,0,.48,1.32,1.75,1.75,0,0,0,2.65-.16A3.07,3.07,0,0,0,47.7,19.9Z"/><path class="cls-2" d="M57.55,19.85a4.06,4.06,0,0,1-1,2.88,2.92,2.92,0,0,1-2.21.94,2.19,2.19,0,0,1-2-1v3.75H50.72v-7.7c0-.77,0-1.55-.06-2.35h1.4l.08,1.13h0a2.83,2.83,0,0,1,4.53-.28A3.93,3.93,0,0,1,57.55,19.85Zm-1.62,0a3,3,0,0,0-.47-1.72,1.65,1.65,0,0,0-1.39-.71,1.72,1.72,0,0,0-1.07.39,1.92,1.92,0,0,0-.62,1,2.15,2.15,0,0,0-.08.48v1.2a1.92,1.92,0,0,0,.48,1.32,1.75,1.75,0,0,0,2.65-.16A3.07,3.07,0,0,0,55.93,19.9Z"/><path class="cls-2" d="M66.75,20.73a2.64,2.64,0,0,1-.88,2.06,3.91,3.91,0,0,1-2.7.87A4.72,4.72,0,0,1,60.6,23L61,21.71a4.39,4.39,0,0,0,2.3.62,2.16,2.16,0,0,0,1.4-.4,1.33,1.33,0,0,0,.5-1.08,1.4,1.4,0,0,0-.41-1,3.87,3.87,0,0,0-1.37-.76q-2.61-1-2.61-2.85a2.52,2.52,0,0,1,.92-2,3.65,3.65,0,0,1,2.44-.78,4.87,4.87,0,0,1,2.25.47l-.4,1.3a3.84,3.84,0,0,0-1.9-.46,2,2,0,0,0-1.32.41,1.21,1.21,0,0,0-.4.9,1.19,1.19,0,0,0,.46,1,5,5,0,0,0,1.44.77A4.77,4.77,0,0,1,66.14,19,2.48,2.48,0,0,1,66.75,20.73Z"/><path class="cls-2" d="M72,17.55H70.27V21c0,.89.31,1.33.93,1.33a2.7,2.7,0,0,0,.7-.08l0,1.21a3.57,3.57,0,0,1-1.24.18,1.9,1.9,0,0,1-1.47-.58,2.82,2.82,0,0,1-.53-1.93V17.54h-1V16.35h1V15l1.56-.47v1.78H72Z"/><path class="cls-2" d="M79.91,19.87A3.91,3.91,0,0,1,79,22.58a3.35,3.35,0,0,1-2.62,1.09,3.18,3.18,0,0,1-2.51-1A3.84,3.84,0,0,1,72.9,20a3.9,3.9,0,0,1,1-2.72,3.33,3.33,0,0,1,2.6-1.06A3.26,3.26,0,0,1,79,17.26,3.72,3.72,0,0,1,79.91,19.87Zm-1.64,0a3.26,3.26,0,0,0-.43-1.69,1.58,1.58,0,0,0-1.43-.85,1.63,1.63,0,0,0-1.46.85,3.32,3.32,0,0,0-.42,1.72A3.23,3.23,0,0,0,75,21.63a1.64,1.64,0,0,0,2.88,0A3.25,3.25,0,0,0,78.27,19.91Z"/><path class="cls-2" d="M85.09,17.75a2.78,2.78,0,0,0-.51,0,1.49,1.49,0,0,0-1.29.63,2.38,2.38,0,0,0-.4,1.42v3.75H81.3v-4.9c0-.83,0-1.58,0-2.25h1.39l.06,1.36h0a2.51,2.51,0,0,1,.8-1.13,1.87,1.87,0,0,1,1.15-.38,2.29,2.29,0,0,1,.39,0v1.51Z"/><path class="cls-2" d="M92.2,19.6a3.73,3.73,0,0,1-.06.72H87.37a2.11,2.11,0,0,0,.69,1.62,2.37,2.37,0,0,0,1.56.5,5.18,5.18,0,0,0,1.93-.34l.25,1.1a5.91,5.91,0,0,1-2.4.44,3.46,3.46,0,0,1-2.61-1,3.6,3.6,0,0,1-1-2.63,4.12,4.12,0,0,1,.88-2.7,3.05,3.05,0,0,1,2.5-1.14,2.7,2.7,0,0,1,2.35,1.14A3.88,3.88,0,0,1,92.2,19.6Zm-1.52-.42A2.12,2.12,0,0,0,90.37,18a1.39,1.39,0,0,0-1.27-.66,1.49,1.49,0,0,0-1.26.64,2.37,2.37,0,0,0-.47,1.24Z"/><path class="cls-2" d="M37.45,10h-.84L36.16,8.6H34.57L34.14,10h-.81L34.9,5.16h1ZM36,8l-.41-1.27c0-.13-.12-.44-.25-.92h0c-.05.21-.13.51-.24.92L34.71,8Z"/><path class="cls-2" d="M41.37,6.52,40,10h-.76L38,6.52h.84l.6,1.86a8.74,8.74,0,0,1,.26.89h0c.06-.26.14-.55.25-.89l.59-1.86Z"/><path class="cls-2" d="M44.21,10l-.06-.4h0a1.22,1.22,0,0,1-1,.48,1,1,0,0,1-1.08-1c0-.87.76-1.32,2.06-1.32V7.7c0-.47-.25-.7-.73-.7a1.68,1.68,0,0,0-.92.26l-.16-.51a2.29,2.29,0,0,1,1.21-.31c.92,0,1.38.49,1.38,1.46V9.2a5.92,5.92,0,0,0,0,.83ZM44.1,8.28c-.87,0-1.3.21-1.3.71a.49.49,0,0,0,.53.55.75.75,0,0,0,.77-.71Z"/><path class="cls-2" d="M46.6,5.94a.47.47,0,0,1,0-.94.47.47,0,0,1,.48.47A.47.47,0,0,1,46.6,5.94ZM47,10h-.78V6.52H47Z"/><path class="cls-2" d="M49.18,10H48.4V4.9h.78Z"/><path class="cls-2" d="M52.5,10l-.06-.4h0a1.22,1.22,0,0,1-1,.48,1,1,0,0,1-1.08-1c0-.87.76-1.32,2.06-1.32V7.7c0-.47-.25-.7-.73-.7a1.68,1.68,0,0,0-.92.26l-.16-.51a2.29,2.29,0,0,1,1.21-.31c.92,0,1.38.49,1.38,1.46V9.19a6,6,0,0,0,.05.84Zm-.11-1.75c-.87,0-1.3.21-1.3.71a.49.49,0,0,0,.53.55.75.75,0,0,0,.77-.71Z"/><path class="cls-2" d="M56.32,10.11a1.2,1.2,0,0,1-1.11-.62h0l-.05.54h-.66c0-.28,0-.6,0-.94V4.9h.78V7h0a1.2,1.2,0,0,1,1.12-.58c.85,0,1.45.72,1.45,1.78A1.69,1.69,0,0,1,56.32,10.11Zm-.16-3A.9.9,0,0,0,55.3,8v.62a.86.86,0,0,0,.85.88c.58,0,.93-.48.93-1.24S56.72,7.06,56.16,7.06Z"/><path class="cls-2" d="M59.81,10H59V4.9h.78Z"/><path class="cls-2" d="M64.07,8.46H61.72a1,1,0,0,0,1.11,1,2.63,2.63,0,0,0,1-.17l.12.54a2.89,2.89,0,0,1-1.18.22A1.63,1.63,0,0,1,61,8.33a1.71,1.71,0,0,1,1.66-1.89,1.47,1.47,0,0,1,1.46,1.67A1.24,1.24,0,0,1,64.07,8.46Zm-.72-.55c0-.55-.27-.93-.77-.93a.93.93,0,0,0-.86.93Z"/><path class="cls-2" d="M68.8,10.11A1.67,1.67,0,0,1,67.11,8.3a1.72,1.72,0,0,1,1.75-1.86,1.66,1.66,0,0,1,1.7,1.81A1.72,1.72,0,0,1,68.8,10.11Zm0-3.1c-.56,0-.92.53-.92,1.27s.37,1.25.92,1.25.92-.56.92-1.26S69.38,7,68.83,7Z"/><path class="cls-2" d="M74.76,10H74V8c0-.62-.24-.93-.71-.93a.81.81,0,0,0-.78.86V10h-.78V7.52c0-.31,0-.64,0-1h.68l0,.54h0a1.27,1.27,0,0,1,1.12-.62c.73,0,1.22.57,1.22,1.49V10Z"/><path class="cls-2" d="M79.87,7.1H79V8.81c0,.44.15.65.46.65a1.75,1.75,0,0,0,.35,0l0,.59a1.71,1.71,0,0,1-.61.09c-.62,0-1-.34-1-1.23V7.1h-.52V6.52h.52V5.87L79,5.64v.88h.86Z"/><path class="cls-2" d="M84,10h-.78V8c0-.63-.24-.95-.71-.95a.77.77,0,0,0-.78.83V10H81V4.9h.78V7h0a1.18,1.18,0,0,1,1-.57c.75,0,1.2.58,1.2,1.5Z"/><path class="cls-2" d="M88,8.46H85.66a1,1,0,0,0,1.11,1,2.63,2.63,0,0,0,1-.17l.12.54a2.86,2.86,0,0,1-1.18.22,1.63,1.63,0,0,1-1.75-1.77,1.71,1.71,0,0,1,1.66-1.89A1.47,1.47,0,0,1,88,8.11,1.24,1.24,0,0,1,88,8.46Zm-.72-.55c0-.55-.27-.93-.77-.93a.93.93,0,0,0-.86.93Z"/></g></g></svg>