<?xml version="1.0" encoding="utf-8"?>
<!-- Generator: Adobe Illustrator 25.2.1, SVG Export Plug-In . SVG Version: 6.00 Build 0)  -->
<svg version="1.1" id="Layer_1" xmlns="http://www.w3.org/2000/svg" xmlns:xlink="http://www.w3.org/1999/xlink" x="0px" y="0px"
	 viewBox="0 0 15 15" style="enable-background:new 0 0 15 15;" xml:space="preserve">
<style type="text/css">
	.st0{opacity:0.35;}
</style>
<g class="st0">
	<path d="M3.3,1.6c0,0.8-0.6,1.5-1.7,1.5C0.6,3.1,0,2.4,0,1.6C0,0.7,0.6,0,1.6,0S3.2,0.7,3.3,1.6z M0.1,15V4.3h3.1V15H0.1z"/>
	<path d="M5.6,7.4c0-1.2,0-2.3-0.1-3.1h2.7l0.1,1.4h0.1c0.4-0.6,1.4-1.6,3-1.6c2,0,3.5,1.3,3.5,4.2V15h-3.1V8.7
		c0-1.3-0.4-2.1-1.6-2.1C9.5,6.6,9,7.1,8.8,7.7C8.7,7.9,8.7,8.2,8.7,8.5V15H5.6V7.4z"/>
</g>
</svg>
