<?xml version="1.0" encoding="utf-8"?>
<!-- Generator: Adobe Illustrator 25.2.1, SVG Export Plug-In . SVG Version: 6.00 Build 0)  -->
<svg version="1.1" id="Layer_1" xmlns="http://www.w3.org/2000/svg" xmlns:xlink="http://www.w3.org/1999/xlink" x="0px" y="0px"
	 viewBox="0 0 23 20" style="enable-background:new 0 0 23 20;" xml:space="preserve">
<style type="text/css">
	.st0{fill:#FFFFFF;}
</style>
<g>
	<g>
		<path class="st0" d="M20.8,19.9H5.3c-2.2,0-4-1.8-4-4v-3.5h1.8v3.5c0,1.2,0.9,2.1,2.1,2.1h15.5c0.1,0,0.2-0.1,0.2-0.2V2.1
			C21,2,20.9,2,20.8,2H5.3C4.1,2,3.2,2.9,3.2,4.1v3.2H1.3V4.1c0-2.2,1.8-4,4-4h15.5c1.1,0,2,0.9,2,2v15.7
			C22.8,19,21.9,19.9,20.8,19.9z"/>
	</g>
	<g>
		<polygon class="st0" points="13.4,15.8 12.2,14.4 16,10.9 0,10.9 0,9.1 16,9.1 12.2,5.6 13.4,4.2 19.7,10 		"/>
	</g>
</g>
</svg>
