<?xml version="1.0" encoding="utf-8"?>
<!-- Generator: Adobe Illustrator 25.2.1, SVG Export Plug-In . SVG Version: 6.00 Build 0)  -->
<svg version="1.1" id="Layer_1" xmlns="http://www.w3.org/2000/svg" xmlns:xlink="http://www.w3.org/1999/xlink" x="0px" y="0px"
	 viewBox="0 0 16 17" style="enable-background:new 0 0 16 17;" xml:space="preserve">
<style type="text/css">
	.st0{fill:#E60028;enable-background:new    ;}
</style>
<path class="st0" d="M9.3,8.5L15.7,2c0.3-0.3,0.3-0.9,0-1.3s-0.9-0.3-1.3,0L8,7.2L1.5,0.8c-0.3-0.3-0.9-0.3-1.3,0s-0.3,0.9,0,1.3
	l6.5,6.5L0.3,15c-0.3,0.3-0.3,0.9,0,1.3s0.9,0.3,1.3,0L8,9.8l6.5,6.5c0.3,0.3,0.9,0.3,1.3,0s0.3-0.9,0-1.3L9.3,8.5z"/>
</svg>
