<?xml version="1.0" encoding="utf-8"?>
<!-- Generator: Adobe Illustrator 25.2.1, SVG Export Plug-In . SVG Version: 6.00 Build 0)  -->
<svg version="1.1" id="Layer_1" xmlns="http://www.w3.org/2000/svg" xmlns:xlink="http://www.w3.org/1999/xlink" x="0px" y="0px"
	 viewBox="0 0 14 11" style="enable-background:new 0 0 14 11;" xml:space="preserve">
<style type="text/css">
	.st0{fill:#E60028;}
</style>
<path class="st0" d="M13.9,5.4C13.9,5.4,13.9,5.4,13.9,5.4c0-0.1-0.1-0.1-0.1-0.1c0,0-0.1-0.1-0.1-0.1c0,0,0,0,0,0L5.3,0.4
	C5.1,0.3,4.8,0.4,4.6,0.6C4.5,0.8,4.5,1.1,4.8,1.3l6,3.6H0.7C0.4,4.8,0.2,5,0.1,5.3c0,0.1,0,0.1,0,0.2c0,0,0,0,0,0s0,0,0,0
	c0,0.4,0.3,0.7,0.7,0.7h10.1l-6,3.6c-0.2,0.1-0.3,0.5-0.2,0.7c0.1,0.2,0.3,0.2,0.4,0.2c0.1,0,0.2,0,0.3-0.1l8.4-4.6c0,0,0,0,0,0
	c0,0,0.1-0.1,0.1-0.1c0,0,0.1-0.1,0.1-0.1c0,0,0,0,0,0c0,0,0-0.1,0-0.1C13.9,5.5,14,5.4,13.9,5.4z"/>
</svg>
