<?xml version="1.0" encoding="utf-8"?>
<!-- Generator: Adobe Illustrator 25.2.1, SVG Export Plug-In . SVG Version: 6.00 Build 0)  -->
<svg version="1.1" id="Layer_1" xmlns="http://www.w3.org/2000/svg" xmlns:xlink="http://www.w3.org/1999/xlink" x="0px" y="0px"
	 viewBox="0 0 14 14" style="enable-background:new 0 0 14 14;" xml:space="preserve">
<style type="text/css">
	.st0{opacity:0.35;}
</style>
<path class="st0" d="M8.1,7l5.6-5.6c0.3-0.3,0.3-0.8,0-1.1s-0.8-0.3-1.1,0L7,5.9L1.4,0.3C1.1,0,0.6,0,0.3,0.3S0,1.1,0.3,1.4L5.9,7
	l-5.6,5.6c-0.3,0.3-0.3,0.8,0,1.1s0.8,0.3,1.1,0L7,8.1l5.6,5.6c0.3,0.3,0.8,0.3,1.1,0s0.3-0.8,0-1.1L8.1,7z"/>
</svg>
