<?xml version="1.0" encoding="utf-8"?>
<!-- Generator: Adobe Illustrator 25.2.1, SVG Export Plug-In . SVG Version: 6.00 Build 0)  -->
<svg version="1.1" id="Layer_1" xmlns="http://www.w3.org/2000/svg" xmlns:xlink="http://www.w3.org/1999/xlink" x="0px" y="0px"
	 viewBox="0 0 20 17" style="enable-background:new 0 0 20 17;" xml:space="preserve">
<style type="text/css">
	.st0{fill:#FFFFFF;}
</style>
<g>
	<g>
		<path class="st0" d="M18,17H4.8c-1.9,0-3.4-1.5-3.4-3.4v-3h1.5v3c0,1,0.8,1.8,1.8,1.8h13.2c0.1,0,0.2-0.1,0.2-0.2V1.8
			c0.1-0.1,0-0.1-0.1-0.1H4.8C3.8,1.7,3,2.4,3,3.5v2.7H1.4V3.5C1.4,1.6,2.9,0,4.8,0H18c0.9,0,1.7,0.8,1.7,1.7v13.4
			C19.7,16.2,19,17,18,17z"/>
	</g>
	<g>
		<polygon class="st0" points="11.7,13.5 10.7,12.3 13.9,9.3 0.3,9.3 0.3,7.7 13.9,7.7 10.7,4.7 11.7,3.5 17.1,8.5 		"/>
	</g>
</g>
</svg>
